HIERARCHY
ROOT Hips
{
 OFFSET 0.000000 0.000000 0.000000
 CHANNELS 6 Xposition Yposition Zposition Yrotation Xrotation Zrotation
 JOINT Chest
 {
  OFFSET 0.000000 10.366939 -0.000175
  CHANNELS 3 Yrotation Xrotation Zrotation
  JOINT Chest2
  {
   OFFSET 0.000000 11.433790 0.000318
   CHANNELS 3 Yrotation Xrotation Zrotation
   JOINT Chest3
   {
    OFFSET 0.000000 10.331133 0.000000
    CHANNELS 3 Yrotation Xrotation Zrotation
    JOINT Chest4
    {
     OFFSET 0.000000 10.331133 0.000000
     CHANNELS 3 Yrotation Xrotation Zrotation
     JOINT Neck
     {
      OFFSET 0.000000 14.530095 0.000000
      CHANNELS 3 Yrotation Xrotation Zrotation
      JOINT Head
      {
       OFFSET 0.000000 9.616255 0.000757
       CHANNELS 3 Yrotation Xrotation Zrotation
       End Site
       {
        OFFSET 0.000000 18.398191 0.000395
       }
      }
     }
     JOINT RightCollar
     {
      OFFSET -3.159467 8.107572 0.000000
      CHANNELS 3 Yrotation Xrotation Zrotation
      JOINT RightShoulder
      {
       OFFSET -14.759419 0.000000 0.000000
       CHANNELS 3 Yrotation Xrotation Zrotation
       JOINT RightElbow
       {
        OFFSET 0.000000 -31.561777 0.000000
        CHANNELS 3 Yrotation Xrotation Zrotation
        JOINT RightWrist
        {
         OFFSET 0.000000 -25.811607 -0.000000
         CHANNELS 3 Yrotation Xrotation Zrotation
         End Site
         {
          OFFSET 0.000000 -19.296333 0.000000
         }
        }
       }
      }
     }
     JOINT LeftCollar
     {
      OFFSET 3.159467 8.107572 0.000000
      CHANNELS 3 Yrotation Xrotation Zrotation
      JOINT LeftShoulder
      {
       OFFSET 14.759419 0.000000 0.000000
       CHANNELS 3 Yrotation Xrotation Zrotation
       JOINT LeftElbow
       {
        OFFSET 0.000000 -31.561777 0.000000
        CHANNELS 3 Yrotation Xrotation Zrotation
        JOINT LeftWrist
        {
         OFFSET 0.000000 -25.811607 -0.000000
         CHANNELS 3 Yrotation Xrotation Zrotation
         End Site
         {
          OFFSET 0.000000 -19.296333 0.000000
         }
        }
       }
      }
     }
    }
   }
  }
 }
 JOINT RightHip
 {
  OFFSET -8.420485 0.000859 0.000088
  CHANNELS 3 Yrotation Xrotation Zrotation
  JOINT RightKnee
  {
   OFFSET 0.000000 -43.611855 -0.000083
   CHANNELS 3 Yrotation Xrotation Zrotation
   JOINT RightAnkle
   {
    OFFSET 0.000000 -42.630478 -0.000140
    CHANNELS 3 Yrotation Xrotation Zrotation
    JOINT RightToe
    {
     OFFSET 0.000000 -7.539428 17.119853
     CHANNELS 3 Yrotation Xrotation Zrotation
     End Site
     {
      OFFSET 0.000000 -1.595212 6.940629
     }
    }
   }
  }
 }
 JOINT LeftHip
 {
  OFFSET 8.420485 0.000859 0.000088
  CHANNELS 3 Yrotation Xrotation Zrotation
  JOINT LeftKnee
  {
   OFFSET 0.000000 -43.611855 -0.000083
   CHANNELS 3 Yrotation Xrotation Zrotation
   JOINT LeftAnkle
   {
    OFFSET 0.000000 -42.630478 -0.000140
    CHANNELS 3 Yrotation Xrotation Zrotation
    JOINT LeftToe
    {
     OFFSET 0.000000 -7.539428 17.119853
     CHANNELS 3 Yrotation Xrotation Zrotation
     End Site
     {
      OFFSET 0.000000 -1.595212 6.940629
     }
    }
   }
  }
 }
}
MOTION
Frames: 15
Frame Time: 0.008333
95.626852 90.754612 220.922624 -92.045570 -18.624709 -2.764770 1.932379 6.923352 4.168880 0.794885 3.094252 1.820452 0.794885 3.094252 1.820452 0.586800 2.323085 1.360982 -0.091522 24.385549 -2.560360 0.472576 9.132187 -4.568978 2.860423 2.305219 11.049722 2.127044 -30.527029 -26.724006 17.943539 -28.519602 5.090897 19.089255 -17.713059 -27.516958 6.151773 2.088264 -1.680404 8.371572 -6.667963 8.250664 3.333106 -6.675942 -5.005580 -32.959840 -24.537188 14.018997 -12.387571 -6.962911 0.139955 3.158828 24.543230 -0.080793 -0.115933 0.436761 1.787676 0.018503 -1.961578 0.532427 -0.918149 8.281096 7.945297 6.273981 66.740026 2.711684 -6.707886 7.107476 -4.450044 -0.650136 -45.607904 2.647724
94.815174 90.975449 220.550963 -91.823619 -18.500949 -2.902599 2.190589 6.976970 4.311521 0.906761 3.121054 1.879553 0.906761 3.121054 1.879553 0.670303 2.343610 1.404685 -0.230054 24.356294 -2.522050 0.215644 9.072050 -4.466106 3.075852 2.349283 11.119621 3.310222 -31.263221 -27.247003 17.863820 -28.415759 4.764232 19.112790 -17.879765 -27.986669 6.161459 2.060787 -1.728391 8.172055 -6.618027 8.197584 3.647252 -5.719580 -4.307659 -33.098037 -24.421926 13.750462 -12.515110 -6.342969 0.231633 2.829881 24.376357 -0.032645 0.001823 -0.026524 1.564409 0.016371 -1.635501 0.452861 -1.137173 6.790443 7.639570 6.117030 68.279354 3.107937 -5.263134 6.375964 -4.131063 -0.124976 -41.155102 1.189930
94.016751 91.216570 220.191003 -91.619927 -18.382108 -2.961904 2.460359 7.036189 4.419208 1.024198 3.150429 1.922873 1.024198 3.150429 1.922873 0.758042 2.366078 1.436512 -0.361334 24.337259 -2.471301 -0.031768 9.031233 -4.342517 3.284318 2.399500 11.164395 4.453538 -32.029479 -27.757585 17.814265 -28.219386 4.447662 19.107930 -18.071956 -28.467882 6.180314 2.025170 -1.807639 8.042248 -6.571728 8.183261 3.872248 -4.783917 -3.609736 -33.140671 -24.303618 13.451235 -12.555135 -5.714721 0.265978 2.463427 24.136690 -0.015839 0.084886 -0.406474 1.388275 0.015303 -1.398508 0.372496 -1.611091 5.307376 7.279580 4.854771 69.514384 2.080365 -3.706009 5.710725 -3.534226 0.082215 -36.476443 0.107626
93.234666 91.468551 219.840027 -91.467460 -18.273612 -2.947380 2.737408 7.107827 4.487354 1.145304 3.185287 1.948381 1.145304 3.185287 1.948381 0.848603 2.392654 1.454941 -0.486350 24.331922 -2.411945 -0.270544 9.016281 -4.204872 3.496556 2.440789 11.191554 5.556725 -32.813035 -28.243718 17.812064 -27.909330 4.097352 19.106882 -18.268127 -28.895256 6.230372 1.971450 -1.881943 7.994104 -6.519243 8.170937 4.008004 -3.864791 -2.882146 -33.146925 -24.193246 13.123980 -12.532616 -5.093556 0.269424 2.114260 23.862057 -0.024786 0.138973 -0.762568 1.242327 0.014275 -1.197941 0.297842 -2.345000 3.841183 6.896679 3.374107 70.606032 0.484719 -2.440643 4.979583 -2.721798 0.066844 -31.661845 -0.676261
92.465018 91.727363 219.496198 -91.343415 -18.162362 -2.886590 3.022204 7.196957 4.524773 1.270106 3.227875 1.959916 1.270106 3.227875 1.959916 0.941977 2.425019 1.462841 -0.598153 24.329487 -2.344550 -0.487735 9.007377 -4.056070 3.717889 2.443812 11.190635 6.602032 -33.600739 -28.665986 17.808112 -27.508641 3.729161 19.007875 -18.556007 -29.221145 6.302042 1.888084 -1.956085 8.041446 -6.466385 8.164611 4.042517 -2.989837 -2.150027 -33.157195 -24.049084 12.798625 -12.476756 -4.461533 0.250758 1.818103 23.543401 -0.040504 0.153461 -1.062006 1.133721 0.013957 -1.066374 0.226308 -3.190700 2.394959 6.549042 1.798923 71.359431 -1.446231 -1.496260 4.267945 -1.934503 -0.060384 -26.907723 -1.134333
91.711551 91.984333 219.169274 -91.266588 -18.058976 -2.773946 3.314379 7.291827 4.534005 1.398535 3.272931 1.958672 1.398535 3.272931 1.958672 1.038129 2.459223 1.461116 -0.710188 24.335385 -2.274695 -0.706184 9.014303 -3.902752 3.921977 2.446605 11.147383 7.587626 -34.383829 -29.006091 17.815218 -27.017694 3.338659 19.013917 -18.773020 -29.481871 6.372015 1.806022 -2.007232 8.194127 -6.407977 8.137438 4.016796 -2.142270 -1.392460 -33.214144 -23.899595 12.475225 -12.390991 -3.859705 0.190907 1.548196 23.190939 -0.059971 0.173240 -1.321141 1.061925 0.013535 -0.944849 0.154600 -4.035092 1.000606 6.234356 0.187191 71.791296 -3.538550 -0.846919 3.494573 -1.375978 -0.187268 -22.457314 -1.232716
90.940908 92.238808 218.849699 -91.175940 -17.905574 -2.651996 3.594917 7.388161 4.522272 1.522103 3.318373 1.948180 1.522103 3.318373 1.948180 1.130683 2.493678 1.452465 -0.811030 24.331742 -2.207064 -0.903778 9.004212 -3.756254 4.131968 2.392079 11.064549 8.486584 -35.158152 -29.235816 17.787373 -26.465449 2.950386 18.989768 -19.026608 -29.684162 6.474861 1.727270 -2.091761 8.429703 -6.349013 8.140907 3.944693 -1.392580 -0.642015 -33.304974 -23.710271 12.173683 -12.332654 -3.240034 0.112026 1.255001 22.872391 -0.078557 0.227536 -1.639456 1.005533 0.013735 -0.883198 0.089221 -4.859515 -0.366658 5.935610 -1.383927 71.861239 -5.614766 -0.429702 2.692538 -1.098480 -0.231905 -18.506303 -0.992788
90.193352 92.480561 218.546297 -91.111796 -17.759144 -2.497465 3.863285 7.494736 4.474903 1.640731 3.367939 1.921866 1.640731 3.367939 1.921866 1.219606 2.531163 1.431946 -0.890975 24.312991 -2.132631 -1.065276 8.966817 -3.602771 4.350616 2.321653 10.968287 9.315917 -35.923290 -29.376557 17.806807 -25.834641 2.511194 19.056275 -19.220152 -29.839477 6.608847 1.593687 -2.107951 8.751306 -6.257725 8.119305 3.862481 -0.654751 0.116183 -33.479286 -23.524616 11.880198 -12.307923 -2.726465 -0.007832 0.938298 22.518563 -0.087051 0.342203 -1.836056 0.938824 0.013545 -0.818231 0.033392 -5.599426 -1.610209 5.610359 -2.856997 71.560159 -7.578955 -0.175631 1.900358 -1.021930 -0.168847 -15.188263 -0.497648
89.439166 92.709351 218.250150 -91.039865 -17.582031 -2.347918 4.126553 7.606937 4.412132 1.757296 3.419766 1.888626 1.757296 3.419766 1.888626 1.307016 2.570307 1.406219 -0.961673 24.274960 -2.063888 -1.208424 8.894147 -3.461737 4.579139 2.210882 10.834258 10.049380 -36.696244 -29.406960 17.706747 -25.201629 2.134290 19.249763 -19.332780 -29.997845 6.765314 1.421534 -2.115498 9.127182 -6.091639 8.115651 3.780364 -0.029221 0.831042 -33.700640 -23.302421 11.632608 -12.333209 -2.243196 -0.116029 0.592938 22.285863 -0.123206 0.495128 -2.112275 0.886790 0.013918 -0.798818 -0.017547 -6.279230 -2.799781 5.256553 -4.168223 70.908628 -9.330004 -0.009991 1.121153 -1.073871 -0.011483 -12.481371 0.179679
88.702883 92.923102 217.958332 -90.992966 -17.390468 -2.204009 4.393494 7.708139 4.334301 1.875871 3.466524 1.848638 1.875871 3.466524 1.848638 1.395992 2.605622 1.375419 -1.027428 24.229726 -1.994033 -1.342945 8.808429 -3.319841 4.794590 2.082199 10.700617 10.725544 -37.412086 -29.388670 17.734838 -24.514090 1.625274 19.372486 -19.473727 -30.134309 6.925107 1.235476 -2.102783 9.543908 -5.949771 8.140573 3.735207 0.603741 1.545676 -33.967283 -23.093652 11.375730 -12.402182 -1.804870 -0.194124 0.211598 21.965407 -0.180397 0.713048 -2.288742 0.811060 0.013808 -0.767241 -0.054989 -6.874876 -3.870473 4.912471 -5.377479 69.893204 -10.883323 0.113020 0.385156 -1.178936 0.192672 -10.432143 0.933325
87.959961 93.121672 217.664701 -90.937787 -17.169109 -2.062521 4.672681 7.791478 4.244622 2.000280 3.505248 1.803277 2.000280 3.505248 1.803277 1.489403 2.634896 1.340568 -1.100168 24.169208 -1.931522 -1.487991 8.694470 -3.189205 4.980875 1.944487 10.558860 11.317452 -38.115360 -29.286009 17.783761 -23.831729 1.105159 19.513898 -19.579772 -30.269838 7.050671 1.068829 -2.067921 10.000829 -5.798558 8.187929 3.688843 1.162122 2.187218 -34.231050 -22.825665 11.152117 -12.514346 -1.387755 -0.252369 -0.123971 21.744575 -0.249323 0.912379 -2.540027 0.732583 0.014039 -0.768644 -0.075579 -7.351517 -4.867915 4.566109 -6.471984 68.569607 -12.220479 0.228775 -0.382913 -1.249289 0.404551 -8.891949 1.712040
87.231417 93.304131 217.369850 -90.888770 -16.920481 -1.941527 4.943903 7.880205 4.142977 2.121325 3.546059 1.752585 2.121325 3.546059 1.752585 1.580321 2.665689 1.301715 -1.164446 24.076214 -1.869270 -1.617372 8.520566 -3.060881 5.183411 1.755971 10.420426 11.833326 -38.792488 -29.158488 17.898302 -23.176713 0.586259 19.637740 -19.665181 -30.449882 7.188534 0.844892 -2.034091 10.468010 -5.635301 8.288402 3.691724 1.686159 2.815960 -34.497975 -22.613015 10.910758 -12.660257 -1.015218 -0.279539 -0.375670 21.451790 -0.296089 1.102330 -2.712137 0.626782 0.013822 -0.757851 -0.072877 -7.756463 -5.794688 4.241039 -7.549324 66.980224 -13.449574 0.435185 -1.162057 -1.281072 0.586145 -7.798646 2.459011
86.493111 93.471455 217.073401 -90.810902 -16.658039 -1.850033 5.201807 7.992938 4.038338 2.236297 3.597270 1.700396 2.236297 3.597270 1.700396 1.666667 2.704239 1.261719 -1.220292 23.942988 -1.814507 -1.729282 8.272277 -2.947728 5.402345 1.496086 10.270036 12.301228 -39.462832 -29.002337 18.022832 -22.533031 0.069374 19.763588 -19.730214 -30.687016 7.347547 0.554729 -2.003943 10.945908 -5.465140 8.418774 3.703306 2.129445 3.351186 -34.733076 -22.229198 10.712728 -12.848493 -0.660648 -0.296557 -0.529147 21.282622 -0.311028 1.229143 -2.976892 0.511035 0.013845 -0.766141 -0.053183 -8.124381 -6.657417 3.937241 -8.595482 65.142326 -14.521408 0.737359 -1.955493 -1.285156 0.720727 -6.949214 3.142014
85.764024 93.620952 216.781045 -90.738515 -16.386352 -1.777450 5.450468 8.117135 3.932118 2.347117 3.653362 1.647398 2.347117 3.653362 1.647398 1.749896 2.746417 1.221103 -1.273981 23.777389 -1.767460 -1.835128 7.964052 -2.848538 5.630233 1.202289 10.122637 12.752957 -40.117333 -28.870300 18.161092 -21.935779 -0.426278 19.875237 -19.780867 -30.954304 7.514825 0.234960 -1.978450 11.414219 -5.307678 8.570408 3.767317 2.551480 3.916776 -34.879756 -22.014213 10.464065 -13.044316 -0.345148 -0.286376 -0.634119 21.071269 -0.309986 1.275516 -3.190041 0.372076 0.013448 -0.753236 -0.019149 -8.431654 -7.460173 3.667727 -9.585001 63.107997 -15.412373 1.115960 -2.704303 -1.249017 0.797874 -6.295642 3.724848
85.033688 93.753039 216.483526 -90.628999 -16.107440 -1.732119 5.687838 8.257424 3.824751 2.452829 3.716383 1.593748 2.452829 3.716383 1.593748 1.829287 2.793757 1.179980 -1.322074 23.581885 -1.721860 -1.930434 7.600484 -2.752903 5.875984 0.858671 9.986757 13.194868 -40.753271 -28.779291 18.289413 -21.372082 -0.903493 19.996496 -19.810071 -31.268528 7.682301 -0.130965 -1.959947 11.882711 -5.149518 8.752884 3.849675 2.908188 4.351594 -35.051438 -21.493733 10.320779 -13.234156 -0.047408 -0.230057 -0.671374 20.945734 -0.303089 1.227037 -3.454557 0.218223 0.013392 -0.757817 0.025172 -8.631262 -8.200984 3.410628 -10.488836 60.872364 -16.042176 1.585703 -3.370630 -1.203432 0.830631 -5.699168 4.214783
